M48
; DRILL file {KiCad 9.0.5} date 2025-11-03T16:19:19+0300
; FORMAT={-:-/ absolute / metric / decimal}
; #@! TF.CreationDate,2025-11-03T16:19:19+03:00
; #@! TF.GenerationSoftware,Kicad,Pcbnew,9.0.5
; #@! TF.FileFunction,Plated,1,2,PTH
FMAT,2
METRIC
; #@! TA.AperFunction,Plated,PTH,ViaDrill
T1C0.300
; #@! TA.AperFunction,Plated,PTH,ComponentDrill
T2C0.600
; #@! TA.AperFunction,Plated,PTH,ComponentDrill
T3C1.000
%
G90
G05
T1
X153.55Y-70.6
X154.35Y-66.8
X155.2Y-69.05
X157.94Y-73.36
X158.07Y-70.34
X158.81Y-73.55
X159.503Y-73.15
X160.6Y-66.997
X160.95Y-62.9
X161.608Y-73.15
X162.35Y-73.45
X162.68Y-84.35
X164.34Y-84.91
X164.7Y-74.45
X164.81Y-82.81
X165.7Y-74.8
X165.75Y-57.67
X165.82Y-79.22
X166.19Y-63.51
X166.4Y-74.25
T3
X151.6Y-52.32
X151.6Y-54.86
X151.6Y-57.4
X151.6Y-59.94
X151.6Y-62.48
X151.6Y-65.02
X151.6Y-67.56
X151.6Y-70.1
X151.6Y-72.64
X151.6Y-75.18
X151.6Y-77.72
X151.6Y-80.26
X151.6Y-82.8
X151.6Y-85.34
X151.6Y-87.88
X151.6Y-90.42
X151.6Y-92.96
X151.6Y-95.5
X151.6Y-98.04
X151.6Y-100.58
X157.988Y-100.076
X160.528Y-100.076
X163.068Y-100.076
X169.7Y-82.86
X169.7Y-85.4
X169.7Y-54.92
X169.7Y-65.08
X169.7Y-95.56
X169.7Y-52.38
X169.7Y-60.0
X169.7Y-62.54
X169.7Y-70.16
X169.7Y-72.7
X169.7Y-75.24
X169.7Y-80.32
X169.7Y-87.94
X169.7Y-90.48
X169.7Y-98.1
X169.7Y-100.64
X169.7Y-67.62
X169.7Y-77.78
X169.7Y-93.02
X169.7Y-57.46
T2
G00X156.38Y-52.54
M15
G01X156.38Y-51.94
M16
G05
G00X156.38Y-56.97
M15
G01X156.38Y-55.87
M16
G05
G00X165.02Y-52.54
M15
G01X165.02Y-51.94
M16
G05
G00X165.02Y-56.97
M15
G01X165.02Y-55.87
M16
G05
M30
