%TF.GenerationSoftware,KiCad,Pcbnew,9.0.5*%
%TF.CreationDate,2025-11-07T22:04:33+03:00*%
%TF.ProjectId,devboard,64657662-6f61-4726-942e-6b696361645f,rev?*%
%TF.SameCoordinates,Original*%
%TF.FileFunction,Soldermask,Bot*%
%TF.FilePolarity,Negative*%
%FSLAX46Y46*%
G04 Gerber Fmt 4.6, Leading zero omitted, Abs format (unit mm)*
G04 Created by KiCad (PCBNEW 9.0.5) date 2025-11-07 22:04:33*
%MOMM*%
%LPD*%
G01*
G04 APERTURE LIST*
%ADD10R,1.700000X1.700000*%
%ADD11C,1.700000*%
%ADD12C,0.650000*%
%ADD13O,1.000000X2.100000*%
%ADD14O,1.000000X1.600000*%
G04 APERTURE END LIST*
D10*
%TO.C,J4*%
X169700000Y-100640001D03*
D11*
X169700000Y-98100000D03*
X169699999Y-95560000D03*
X169700002Y-93019998D03*
X169700000Y-90480001D03*
X169700000Y-87940001D03*
X169699998Y-85400000D03*
X169699998Y-82860001D03*
X169700000Y-80320001D03*
X169700002Y-77780004D03*
X169700000Y-75240001D03*
X169700000Y-72700001D03*
X169700000Y-70160001D03*
X169700001Y-67620002D03*
X169699999Y-65080003D03*
X169700000Y-62540001D03*
X169700000Y-60000001D03*
X169700003Y-57460002D03*
X169699999Y-54920004D03*
X169700000Y-52380001D03*
%TD*%
D12*
%TO.C,J1*%
X163590000Y-55890000D03*
X157810000Y-55890000D03*
D13*
X165020000Y-56420000D03*
D14*
X165020000Y-52240000D03*
D13*
X156380000Y-56420000D03*
D14*
X156380000Y-52240000D03*
%TD*%
D10*
%TO.C,J2*%
X157988000Y-100076000D03*
D11*
X160528000Y-100076000D03*
X163068000Y-100076000D03*
%TD*%
D10*
%TO.C,J3*%
X151600000Y-52320000D03*
D11*
X151600000Y-54860000D03*
X151600000Y-57400000D03*
X151600000Y-59940000D03*
X151600000Y-62480000D03*
X151600000Y-65020000D03*
X151600000Y-67560000D03*
X151600000Y-70100000D03*
X151600000Y-72640000D03*
X151600000Y-75180000D03*
X151600000Y-77720000D03*
X151600000Y-80260000D03*
X151600000Y-82800000D03*
X151600000Y-85340000D03*
X151600000Y-87880000D03*
X151600000Y-90420000D03*
X151600000Y-92960000D03*
X151600000Y-95500000D03*
X151600000Y-98040000D03*
X151600000Y-100580000D03*
%TD*%
M02*
