%TF.GenerationSoftware,KiCad,Pcbnew,9.0.5*%
%TF.CreationDate,2025-11-07T22:04:32+03:00*%
%TF.ProjectId,devboard,64657662-6f61-4726-942e-6b696361645f,rev?*%
%TF.SameCoordinates,Original*%
%TF.FileFunction,Paste,Top*%
%TF.FilePolarity,Positive*%
%FSLAX46Y46*%
G04 Gerber Fmt 4.6, Leading zero omitted, Abs format (unit mm)*
G04 Created by KiCad (PCBNEW 9.0.5) date 2025-11-07 22:04:32*
%MOMM*%
%LPD*%
G01*
G04 APERTURE LIST*
G04 Aperture macros list*
%AMRoundRect*
0 Rectangle with rounded corners*
0 $1 Rounding radius*
0 $2 $3 $4 $5 $6 $7 $8 $9 X,Y pos of 4 corners*
0 Add a 4 corners polygon primitive as box body*
4,1,4,$2,$3,$4,$5,$6,$7,$8,$9,$2,$3,0*
0 Add four circle primitives for the rounded corners*
1,1,$1+$1,$2,$3*
1,1,$1+$1,$4,$5*
1,1,$1+$1,$6,$7*
1,1,$1+$1,$8,$9*
0 Add four rect primitives between the rounded corners*
20,1,$1+$1,$2,$3,$4,$5,0*
20,1,$1+$1,$4,$5,$6,$7,0*
20,1,$1+$1,$6,$7,$8,$9,0*
20,1,$1+$1,$8,$9,$2,$3,0*%
G04 Aperture macros list end*
%ADD10RoundRect,0.140000X-0.170000X0.140000X-0.170000X-0.140000X0.170000X-0.140000X0.170000X0.140000X0*%
%ADD11RoundRect,0.140000X0.170000X-0.140000X0.170000X0.140000X-0.170000X0.140000X-0.170000X-0.140000X0*%
%ADD12RoundRect,0.135000X0.185000X-0.135000X0.185000X0.135000X-0.185000X0.135000X-0.185000X-0.135000X0*%
%ADD13RoundRect,0.140000X-0.140000X-0.170000X0.140000X-0.170000X0.140000X0.170000X-0.140000X0.170000X0*%
%ADD14RoundRect,0.135000X0.135000X0.185000X-0.135000X0.185000X-0.135000X-0.185000X0.135000X-0.185000X0*%
%ADD15R,0.600000X1.450000*%
%ADD16R,0.300000X1.450000*%
%ADD17RoundRect,0.249999X-0.395001X-0.395001X0.395001X-0.395001X0.395001X0.395001X-0.395001X0.395001X0*%
%ADD18RoundRect,0.050000X-0.387500X-0.050000X0.387500X-0.050000X0.387500X0.050000X-0.387500X0.050000X0*%
%ADD19RoundRect,0.050000X-0.050000X-0.387500X0.050000X-0.387500X0.050000X0.387500X-0.050000X0.387500X0*%
%ADD20RoundRect,0.040000X-0.040000X-0.605000X0.040000X-0.605000X0.040000X0.605000X-0.040000X0.605000X0*%
%ADD21RoundRect,0.062500X-0.387500X-0.062500X0.387500X-0.062500X0.387500X0.062500X-0.387500X0.062500X0*%
%ADD22RoundRect,0.150000X0.150000X-0.587500X0.150000X0.587500X-0.150000X0.587500X-0.150000X-0.587500X0*%
%ADD23RoundRect,0.200000X0.800000X-0.200000X0.800000X0.200000X-0.800000X0.200000X-0.800000X-0.200000X0*%
%ADD24RoundRect,0.135000X-0.135000X-0.185000X0.135000X-0.185000X0.135000X0.185000X-0.135000X0.185000X0*%
%ADD25RoundRect,0.140000X0.140000X0.170000X-0.140000X0.170000X-0.140000X-0.170000X0.140000X-0.170000X0*%
%ADD26RoundRect,0.135000X-0.185000X0.135000X-0.185000X-0.135000X0.185000X-0.135000X0.185000X0.135000X0*%
%ADD27RoundRect,0.250000X0.450000X0.350000X-0.450000X0.350000X-0.450000X-0.350000X0.450000X-0.350000X0*%
%ADD28RoundRect,0.225000X0.225000X0.250000X-0.225000X0.250000X-0.225000X-0.250000X0.225000X-0.250000X0*%
%ADD29RoundRect,0.375000X-0.375000X0.625000X-0.375000X-0.625000X0.375000X-0.625000X0.375000X0.625000X0*%
%ADD30RoundRect,0.500000X-1.400000X0.500000X-1.400000X-0.500000X1.400000X-0.500000X1.400000X0.500000X0*%
G04 APERTURE END LIST*
D10*
%TO.C,C9*%
X161299998Y-77410000D03*
X161300002Y-78370000D03*
%TD*%
%TO.C,C12*%
X162960001Y-76890001D03*
X162959999Y-77849999D03*
%TD*%
D11*
%TO.C,C15*%
X155900000Y-79350000D03*
X155899996Y-78390000D03*
%TD*%
D12*
%TO.C,R3*%
X161900000Y-65650000D03*
X161900000Y-64630000D03*
%TD*%
D13*
%TO.C,C2*%
X165890000Y-66560000D03*
X166850000Y-66560000D03*
%TD*%
D14*
%TO.C,R5*%
X160850000Y-76400000D03*
X159830000Y-76400000D03*
%TD*%
D15*
%TO.C,J1*%
X163950000Y-57335000D03*
X163150000Y-57335000D03*
D16*
X161950000Y-57335000D03*
X160950000Y-57335000D03*
X160450000Y-57335000D03*
X159450000Y-57335000D03*
D15*
X158250000Y-57335000D03*
X157450000Y-57335000D03*
X157450000Y-57335000D03*
X158250000Y-57335000D03*
D16*
X158950000Y-57335000D03*
X159950000Y-57335000D03*
X161450000Y-57335000D03*
X162450000Y-57335000D03*
D15*
X163150000Y-57335000D03*
X163950000Y-57335000D03*
%TD*%
D13*
%TO.C,C8*%
X166120000Y-71450001D03*
X167080000Y-71449999D03*
%TD*%
D11*
%TO.C,C6*%
X161950000Y-61880000D03*
X161950000Y-60920000D03*
%TD*%
D14*
%TO.C,R6*%
X156500000Y-62400000D03*
X155480000Y-62400000D03*
%TD*%
D11*
%TO.C,C11*%
X159950000Y-63530000D03*
X159950000Y-62570000D03*
%TD*%
D17*
%TO.C,U1*%
X159400000Y-70250000D03*
X159400000Y-71850000D03*
X161000000Y-70250000D03*
X161000000Y-71850000D03*
D18*
X156762500Y-68450000D03*
X156762500Y-68850000D03*
X156762500Y-69250000D03*
X156762500Y-69650000D03*
X156762500Y-70050000D03*
X156762500Y-70450000D03*
X156762500Y-70850000D03*
X156762500Y-71250000D03*
X156762500Y-71650000D03*
X156762500Y-72050000D03*
X156762500Y-72450000D03*
X156762500Y-72850000D03*
X156762500Y-73250000D03*
X156762500Y-73650000D03*
D19*
X157600000Y-74487500D03*
X158000000Y-74487500D03*
X158400000Y-74487500D03*
X158800000Y-74487500D03*
X159200000Y-74487500D03*
X159600000Y-74487500D03*
X160000000Y-74487500D03*
X160400000Y-74487500D03*
X160800000Y-74487500D03*
X161200000Y-74487500D03*
X161600000Y-74487500D03*
X162000000Y-74487500D03*
X162400000Y-74487500D03*
X162800000Y-74487500D03*
D18*
X163637500Y-73650000D03*
X163637500Y-73250000D03*
X163637500Y-72850000D03*
X163637500Y-72450000D03*
X163637500Y-72050000D03*
X163637500Y-71650000D03*
X163637500Y-71250000D03*
X163637500Y-70850000D03*
X163637500Y-70450000D03*
X163637500Y-70050000D03*
X163637500Y-69650000D03*
X163637500Y-69250000D03*
X163637500Y-68850000D03*
X163637500Y-68450000D03*
D19*
X162800000Y-67612500D03*
X162400000Y-67612500D03*
X162000000Y-67612500D03*
X161600000Y-67612500D03*
X161200000Y-67612500D03*
X160800000Y-67612500D03*
X160400000Y-67612500D03*
X160000000Y-67612500D03*
X159600000Y-67612500D03*
X159200000Y-67612500D03*
X158800000Y-67612500D03*
X158400000Y-67612500D03*
X158000000Y-67612500D03*
X157600000Y-67612500D03*
%TD*%
D20*
%TO.C,U3*%
X156850000Y-64350000D03*
D21*
X155425000Y-63600000D03*
X155425000Y-64100000D03*
X155425000Y-64600000D03*
X155425000Y-65100000D03*
X158275000Y-65100000D03*
X158275000Y-64600000D03*
X158275000Y-64100000D03*
X158275000Y-63600000D03*
%TD*%
D11*
%TO.C,C5*%
X163999999Y-66730000D03*
X164000001Y-65770000D03*
%TD*%
D10*
%TO.C,C17*%
X160950000Y-60900000D03*
X160950000Y-61860000D03*
%TD*%
D22*
%TO.C,U4*%
X164850002Y-61587501D03*
X166749999Y-61587500D03*
X165800001Y-59712498D03*
%TD*%
D13*
%TO.C,C1*%
X165890000Y-67750000D03*
X166850000Y-67750000D03*
%TD*%
D23*
%TO.C,SW1*%
X165150000Y-80700000D03*
X165150000Y-76500000D03*
%TD*%
D24*
%TO.C,R1*%
X163790000Y-63650000D03*
X164810000Y-63650000D03*
%TD*%
D25*
%TO.C,C4*%
X155900000Y-67550000D03*
X154940000Y-67549996D03*
%TD*%
D10*
%TO.C,C16*%
X161219998Y-79330000D03*
X161220002Y-80290000D03*
%TD*%
D26*
%TO.C,R4*%
X160950000Y-64090000D03*
X160950000Y-65110000D03*
%TD*%
D11*
%TO.C,C10*%
X162900000Y-65630000D03*
X162900000Y-64670000D03*
%TD*%
D25*
%TO.C,C7*%
X154780000Y-72750001D03*
X153820000Y-72749999D03*
%TD*%
D27*
%TO.C,Y1*%
X159700002Y-78499997D03*
X157499999Y-78500002D03*
X157499998Y-80200003D03*
X159700001Y-80199998D03*
%TD*%
D14*
%TO.C,R7*%
X164110000Y-83490000D03*
X163090000Y-83490000D03*
%TD*%
D28*
%TO.C,C13*%
X166775000Y-65200000D03*
X165225000Y-65200000D03*
%TD*%
D13*
%TO.C,C3*%
X157590000Y-62400000D03*
X158550000Y-62400000D03*
%TD*%
D14*
%TO.C,R2*%
X158810000Y-59200000D03*
X157790000Y-59200000D03*
%TD*%
D28*
%TO.C,C14*%
X156420000Y-59810000D03*
X154870000Y-59810012D03*
%TD*%
D29*
%TO.C,U2*%
X163050000Y-89400000D03*
X160750000Y-89400000D03*
D30*
X160750000Y-95700000D03*
D29*
X158450000Y-89400000D03*
%TD*%
M02*
